<svg width="512" height="512" viewBox="0 0 512 512" fill="none" xmlns="http://www.w3.org/2000/svg">
<rect width="512" height="512" rx="8" fill="#151616"/>
<g clip-path="url(#clip0_3998_4752)">
<path fill-rule="evenodd" clip-rule="evenodd" d="M96.9412 57C91.4508 57 87 61.466 87 66.975V305.788C87 388.748 154.024 456 236.702 456C241.87 456 246.059 451.797 246.059 446.612V66.975C246.059 61.466 241.608 57 236.118 57H96.9412ZM166.529 76.95C166.529 110.004 139.825 136.8 106.882 136.8C139.825 136.8 166.529 163.596 166.529 196.65C166.529 163.596 193.234 136.8 226.176 136.8C193.234 136.8 166.529 110.004 166.529 76.95Z" fill="#A0D8DB"/>
<path fill-rule="evenodd" clip-rule="evenodd" d="M275.882 456C270.392 456 265.941 451.534 265.941 446.025L265.941 207.212C265.941 124.252 332.965 57 415.644 57C420.811 57 425 61.2033 425 66.3882L425 446.025C425 451.534 420.549 456 415.059 456H275.882ZM345.471 436.05C345.471 402.996 318.766 376.2 285.824 376.2C318.766 376.2 345.471 349.404 345.471 316.35C345.471 349.404 372.175 376.2 405.118 376.2C372.175 376.2 345.471 402.996 345.471 436.05Z" fill="#A0D8DB"/>
</g>
<defs>
<clipPath id="clip0_3998_4752">
<rect width="338" height="399" fill="white" transform="translate(87 57)"/>
</clipPath>
</defs>
</svg>
