<svg width="3371" height="837" viewBox="0 0 3371 837" fill="none" xmlns="http://www.w3.org/2000/svg">
<g clip-path="url(#clip0_2578_3741)">
<path fill-rule="evenodd" clip-rule="evenodd" d="M171.003 19C159.956 19 151 27.9543 151 39V517.824C151 684.159 285.86 819 452.218 819C462.615 819 471.044 810.572 471.044 800.176V39C471.044 27.9543 462.089 19 451.041 19H171.003ZM311.022 59C311.022 125.274 257.289 179 191.006 179C257.289 179 311.022 232.726 311.022 299C311.022 232.726 364.755 179 431.039 179C364.755 179 311.022 125.274 311.022 59Z" fill="#FCFCFC"/>
<path fill-rule="evenodd" clip-rule="evenodd" d="M531.052 819C520.005 819 511.05 810.046 511.05 799L511.05 320.177C511.049 153.841 645.909 19 812.268 19C822.665 19 831.094 27.4276 831.094 37.8235L831.094 799C831.094 810.046 822.138 819 811.091 819H531.052ZM671.072 779C671.072 712.726 617.338 659 551.055 659C617.338 659 671.072 605.274 671.072 539C671.072 605.274 724.805 659 791.088 659C724.805 659 671.072 712.726 671.072 779Z" fill="#FCFCFC"/>
</g>
<path d="M1117.53 464.333C1085.17 464.333 1057.61 458.644 1034.86 447.267C1012.1 435.533 994.672 419.178 982.582 398.2C970.491 377.222 964.446 352.689 964.446 324.6V85.6666H1052.46V324.6C1052.46 338.467 1055.12 350.378 1060.46 360.333C1065.79 370.289 1073.26 378.111 1082.86 383.8C1092.82 389.133 1104.38 391.8 1117.53 391.8C1131.05 391.8 1142.6 389.133 1152.21 383.8C1161.81 378.111 1169.27 370.289 1174.61 360.333C1179.94 350.378 1182.61 338.467 1182.61 324.6V85.6666H1270.62V324.6C1270.62 352.689 1264.58 377.222 1252.49 398.2C1240.39 419.178 1222.97 435.533 1200.21 447.267C1177.45 458.644 1149.89 464.333 1117.53 464.333Z" fill="#FCFCFC"/>
<path d="M1360.98 457.933V85.6666H1472.99L1577.01 349.133L1571.14 213.667V85.6666H1653.82V457.933H1541.8L1436.72 199.267L1443.65 329.933V457.933H1360.98Z" fill="#FCFCFC"/>
<path d="M1852.45 457.933V85.6666H1940.46V457.933H1852.45ZM1767.11 85.6666H2025.81V157.667H1767.11V85.6666ZM1767.11 385.933H2025.81V457.933H1767.11V385.933Z" fill="#FCFCFC"/>
<path d="M2209.51 318.733V246.733H2293.25C2303.92 246.733 2313.17 244.778 2320.99 240.867C2329.17 236.956 2335.39 231.444 2339.66 224.333C2344.28 217.222 2346.59 209.222 2346.59 200.333C2346.59 191.8 2344.46 184.333 2340.19 177.933C2336.28 171.533 2330.77 166.555 2323.66 163C2316.55 159.444 2308.37 157.667 2299.12 157.667H2209.51V85.6666H2299.12C2326.15 85.6666 2349.97 90.2888 2370.6 99.5333C2391.58 108.422 2407.94 121.4 2419.67 138.467C2431.41 155.533 2437.27 176.156 2437.27 200.333C2437.27 214.911 2433.72 229.311 2426.61 243.533C2419.85 257.4 2409.89 270.022 2396.74 281.4C2383.93 292.778 2368.29 301.844 2349.8 308.6C2331.66 315.356 2311.03 318.733 2287.92 318.733H2209.51ZM2146.03 457.933V85.6666H2234.05V457.933H2146.03ZM2348.73 457.933C2348.73 442.289 2345.88 426.467 2340.19 410.467C2334.5 394.111 2326.15 378.644 2315.12 364.067C2304.46 349.133 2291.12 335.622 2275.12 323.533C2259.12 311.444 2240.62 301.667 2219.64 294.2L2317.26 274.467C2337.88 284.778 2355.84 297.044 2371.13 311.267C2386.42 325.489 2399.05 340.778 2409 357.133C2419.32 373.489 2426.96 390.378 2431.94 407.8C2436.92 424.867 2439.41 441.578 2439.41 457.933H2348.73Z" fill="#FCFCFC"/>
<path d="M2541.5 457.933V85.6666H2817.27V157.667H2629.51V229.667H2750.59V301.667H2629.51V385.933H2819.4V457.933H2541.5Z" fill="#FCFCFC"/>
<path d="M2987.1 341.133V269.133H3071.91C3088.98 269.133 3102.67 263.978 3112.98 253.667C3123.3 243 3128.45 229.133 3128.45 212.067C3128.45 195.711 3123.3 182.556 3112.98 172.6C3102.67 162.644 3088.98 157.667 3071.91 157.667H2987.1V85.6666H3072.45C3101.96 85.6666 3127.74 90.8222 3149.79 101.133C3171.84 111.444 3188.91 126.2 3201 145.4C3213.09 164.244 3219.13 186.467 3219.13 212.067C3219.13 238.022 3213.09 260.778 3201 280.333C3188.91 299.533 3171.84 314.467 3149.79 325.133C3128.1 335.8 3102.32 341.133 3072.45 341.133H2987.1ZM2924.16 457.933V85.6666H3012.17V457.933H2924.16Z" fill="#FCFCFC"/>
<path d="M994.183 668.933V643.933H1057.53C1073.75 643.933 1086.86 639.6 1096.86 630.933C1106.87 622.267 1111.87 610.822 1111.87 596.6C1111.87 582.6 1107.2 571.378 1097.86 562.933C1088.75 554.489 1076.64 550.267 1061.53 550.267H994.183V525.267H1061.86C1078.08 525.267 1092.2 528.267 1104.2 534.267C1116.2 540.044 1125.53 548.267 1132.2 558.933C1138.87 569.378 1142.2 581.933 1142.2 596.6C1142.2 611.044 1138.65 623.711 1131.54 634.6C1124.65 645.489 1114.87 653.933 1102.2 659.933C1089.53 665.933 1074.64 668.933 1057.53 668.933H994.183ZM973.514 757.933V525.267H1002.18V757.933H973.514Z" fill="#FCFCFC"/>
<path d="M1292.35 657.267V632.267H1353.36C1364.25 632.267 1373.81 630.6 1382.03 627.267C1390.48 623.711 1397.04 618.711 1401.7 612.267C1406.59 605.6 1409.04 597.933 1409.04 589.267C1409.04 581.267 1406.93 574.378 1402.7 568.6C1398.48 562.822 1392.81 558.378 1385.7 555.267C1378.59 551.933 1370.7 550.267 1362.03 550.267H1292.35V525.267H1362.03C1376.92 525.267 1390.15 527.822 1401.7 532.933C1413.48 538.044 1422.71 545.378 1429.37 554.933C1436.04 564.489 1439.37 575.933 1439.37 589.267C1439.37 598.155 1437.37 606.711 1433.37 614.933C1429.6 622.933 1423.93 630.155 1416.37 636.6C1408.82 642.822 1399.7 647.822 1389.03 651.6C1378.37 655.378 1366.14 657.267 1352.36 657.267H1292.35ZM1271.68 757.933V525.267H1300.36V757.933H1271.68ZM1407.7 757.933C1405.93 747.267 1402.7 736.822 1398.04 726.6C1393.59 716.378 1387.59 706.6 1380.03 697.267C1372.7 687.933 1363.48 679.155 1352.36 670.933C1341.25 662.711 1328.36 655.155 1313.69 648.267L1345.7 640.933C1361.25 648.489 1374.48 656.822 1385.37 665.933C1396.26 674.822 1405.26 684.267 1412.37 694.267C1419.71 704.044 1425.26 714.267 1429.04 724.933C1432.82 735.6 1435.37 746.6 1436.71 757.933H1407.7Z" fill="#FCFCFC"/>
<path d="M1646.53 761.933C1626.98 761.933 1609.97 757.044 1595.53 747.267C1581.08 737.267 1569.86 723.267 1561.86 705.267C1554.08 687.044 1550.19 665.822 1550.19 641.6C1550.19 617.155 1554.08 595.933 1561.86 577.933C1569.86 559.933 1581.08 546.044 1595.53 536.267C1609.97 526.267 1626.98 521.267 1646.53 521.267C1666.09 521.267 1683.09 526.267 1697.54 536.267C1711.99 546.044 1723.1 559.933 1730.88 577.933C1738.88 595.933 1742.88 617.155 1742.88 641.6C1742.88 665.822 1738.88 687.044 1730.88 705.267C1723.1 723.267 1711.99 737.267 1697.54 747.267C1683.09 757.044 1666.09 761.933 1646.53 761.933ZM1646.53 736.933C1659.87 736.933 1671.43 733.044 1681.21 725.267C1691.21 717.489 1698.87 706.489 1704.21 692.267C1709.76 677.822 1712.54 660.933 1712.54 641.6C1712.54 622.267 1709.76 605.489 1704.21 591.267C1698.87 577.044 1691.21 566.044 1681.21 558.267C1671.43 550.267 1659.87 546.267 1646.53 546.267C1633.2 546.267 1621.53 550.267 1611.53 558.267C1601.75 566.044 1594.08 577.044 1588.53 591.267C1582.97 605.489 1580.19 622.267 1580.19 641.6C1580.19 660.933 1582.97 677.822 1588.53 692.267C1594.08 706.489 1601.75 717.489 1611.53 725.267C1621.53 733.044 1633.2 736.933 1646.53 736.933Z" fill="#FCFCFC"/>
<path d="M1928.37 757.933V550.267H1851.03V525.267H2034.72V550.267H1957.37V757.933H1928.37Z" fill="#FCFCFC"/>
<path d="M2240.21 761.933C2220.65 761.933 2203.65 757.044 2189.2 747.267C2174.76 737.267 2163.53 723.267 2155.53 705.267C2147.75 687.044 2143.86 665.822 2143.86 641.6C2143.86 617.155 2147.75 595.933 2155.53 577.933C2163.53 559.933 2174.76 546.044 2189.2 536.267C2203.65 526.267 2220.65 521.267 2240.21 521.267C2259.77 521.267 2276.77 526.267 2291.22 536.267C2305.66 546.044 2316.78 559.933 2324.55 577.933C2332.56 595.933 2336.56 617.155 2336.56 641.6C2336.56 665.822 2332.56 687.044 2324.55 705.267C2316.78 723.267 2305.66 737.267 2291.22 747.267C2276.77 757.044 2259.77 761.933 2240.21 761.933ZM2240.21 736.933C2253.54 736.933 2265.1 733.044 2274.88 725.267C2284.88 717.489 2292.55 706.489 2297.88 692.267C2303.44 677.822 2306.22 660.933 2306.22 641.6C2306.22 622.267 2303.44 605.489 2297.88 591.267C2292.55 577.044 2284.88 566.044 2274.88 558.267C2265.1 550.267 2253.54 546.267 2240.21 546.267C2226.87 546.267 2215.21 550.267 2205.2 558.267C2195.43 566.044 2187.76 577.044 2182.2 591.267C2176.64 605.489 2173.87 622.267 2173.87 641.6C2173.87 660.933 2176.64 677.822 2182.2 692.267C2187.76 706.489 2195.43 717.489 2205.2 725.267C2215.21 733.044 2226.87 736.933 2240.21 736.933Z" fill="#FCFCFC"/>
<path d="M2541.38 761.933C2520.93 761.933 2503.15 756.711 2488.04 746.267C2473.15 735.822 2461.7 721.6 2453.7 703.6C2445.7 685.378 2441.7 664.6 2441.7 641.267C2441.7 616.822 2445.92 595.6 2454.37 577.6C2462.81 559.6 2474.59 545.711 2489.71 535.933C2504.82 526.155 2522.27 521.267 2542.05 521.267C2558.27 521.267 2572.83 524.489 2585.72 530.933C2598.61 537.155 2609.17 546.155 2617.39 557.933C2625.61 569.711 2630.5 583.6 2632.06 599.6H2600.06C2598.28 583.6 2592.17 570.711 2581.72 560.933C2571.27 551.155 2557.94 546.267 2541.71 546.267C2527.93 546.267 2515.82 550.155 2505.38 557.933C2494.93 565.711 2486.71 576.822 2480.71 591.267C2474.93 605.489 2472.04 622.267 2472.04 641.6C2472.04 661.155 2475.04 678.156 2481.04 692.6C2487.04 706.822 2495.26 717.822 2505.71 725.6C2516.16 733.155 2528.05 736.933 2541.38 736.933C2552.72 736.933 2562.61 734.6 2571.05 729.933C2579.72 725.267 2586.61 718.711 2591.72 710.267C2597.06 701.822 2600.28 691.933 2601.39 680.6H2633.06C2631.5 696.822 2626.73 711.156 2618.72 723.6C2610.95 735.822 2600.5 745.267 2587.39 751.933C2574.27 758.6 2558.94 761.933 2541.38 761.933Z" fill="#FCFCFC"/>
<path d="M2833.88 761.933C2814.33 761.933 2797.32 757.044 2782.88 747.267C2768.43 737.267 2757.21 723.267 2749.21 705.267C2741.43 687.044 2737.54 665.822 2737.54 641.6C2737.54 617.155 2741.43 595.933 2749.21 577.933C2757.21 559.933 2768.43 546.044 2782.88 536.267C2797.32 526.267 2814.33 521.267 2833.88 521.267C2853.44 521.267 2870.45 526.267 2884.89 536.267C2899.34 546.044 2910.45 559.933 2918.23 577.933C2926.23 595.933 2930.23 617.155 2930.23 641.6C2930.23 665.822 2926.23 687.044 2918.23 705.267C2910.45 723.267 2899.34 737.267 2884.89 747.267C2870.45 757.044 2853.44 761.933 2833.88 761.933ZM2833.88 736.933C2847.22 736.933 2858.78 733.044 2868.56 725.267C2878.56 717.489 2886.23 706.489 2891.56 692.267C2897.12 677.822 2899.89 660.933 2899.89 641.6C2899.89 622.267 2897.12 605.489 2891.56 591.267C2886.23 577.044 2878.56 566.044 2868.56 558.267C2858.78 550.267 2847.22 546.267 2833.88 546.267C2820.55 546.267 2808.88 550.267 2798.88 558.267C2789.1 566.044 2781.43 577.044 2775.88 591.267C2770.32 605.489 2767.54 622.267 2767.54 641.6C2767.54 660.933 2770.32 677.822 2775.88 692.267C2781.43 706.489 2789.1 717.489 2798.88 725.267C2808.88 733.044 2820.55 736.933 2833.88 736.933Z" fill="#FCFCFC"/>
<path d="M3061.71 757.933V525.267H3090.38V732.933H3215.4V757.933H3061.71Z" fill="#FCFCFC"/>
<defs>
<clipPath id="clip0_2578_3741">
<rect width="680.094" height="800" fill="white" transform="translate(151 19)"/>
</clipPath>
</defs>
</svg>
