<svg width="681" height="800" viewBox="0 0 681 800" fill="none" xmlns="http://www.w3.org/2000/svg">
<g clip-path="url(#clip0_3948_96)">
<path fill-rule="evenodd" clip-rule="evenodd" d="M20.0028 0C8.95554 0 0 8.95429 0 20V498.824C0 665.159 134.86 800 301.218 800C311.615 800 320.044 791.572 320.044 781.176V20C320.044 8.95431 311.089 0 300.041 0H20.0028ZM160.022 40C160.022 106.274 106.289 160 40.0055 160C106.289 160 160.022 213.726 160.022 280C160.022 213.726 213.755 160 280.039 160C213.755 160 160.022 106.274 160.022 40Z" fill="#FCFCFC"/>
<path fill-rule="evenodd" clip-rule="evenodd" d="M380.052 800C369.005 800 360.05 791.046 360.05 780L360.05 301.177C360.05 134.841 494.909 1.45415e-05 661.268 0C671.665 -9.08842e-07 680.094 8.42758 680.094 18.8235L680.094 780C680.094 791.046 671.138 800 660.091 800H380.052ZM520.072 760C520.072 693.726 466.338 640 400.055 640C466.338 640 520.072 586.274 520.072 520C520.072 586.274 573.805 640 640.088 640C573.805 640 520.072 693.726 520.072 760Z" fill="#FCFCFC"/>
</g>
<defs>
<clipPath id="clip0_3948_96">
<rect width="680.094" height="800" fill="white"/>
</clipPath>
</defs>
</svg>
